<svg height="512pt" viewBox="0 0 512 512" width="512pt" xmlns="http://www.w3.org/2000/svg"><path d="m374 512c-27.851562 0-54.324219-8.109375-77.125-23.546875-73.871094 12.914063-151.433594-9.257813-207.753906-65.574219-56.292969-56.296875-78.492188-133.851562-65.574219-207.753906-15.4375-22.800781-23.546875-49.273438-23.546875-77.125 0-76.09375 61.90625-138 138-138 27.851562 0 54.324219 8.109375 77.125 23.546875 161.027344-28.148437 301.582031 111.714844 273.328125 273.328125 15.4375 22.800781 23.546875 49.273438 23.546875 77.125 0 76.09375-61.90625 138-138 138zm-60.132812-60.617188c17.328124 13.488282 38.121093 20.617188 60.132812 20.617188 54.035156 0 98-43.960938 98-98 0-22.011719-7.128906-42.804688-20.617188-60.132812-3.632812-4.667969-5.015624-10.703126-3.769531-16.484376 29.984375-139.589843-94.375-262.777343-232.996093-232.996093-5.777344 1.242187-11.816407-.136719-16.484376-3.769531-17.328124-13.488282-38.121093-20.617188-60.132812-20.617188-54.035156 0-98 43.960938-98 98 0 22.011719 7.128906 42.804688 20.617188 60.132812 3.632812 4.667969 5.015624 10.703126 3.769531 16.484376-29.917969 139.277343 94.050781 262.84375 232.996093 232.996093 5.753907-1.238281 11.796876.121094 16.484376 3.769531zm40.800781-136.382812c0-54.007812-68.277344-70.515625-83.558594-75.207031-31.65625-9.714844-73.777344-20.546875-73.777344-42.792969 0-21.140625 26.867188-39 58.667969-39 25.300781 0 48.367188 11.457031 56.097656 27.859375 4.710938 9.988281 16.628906 14.273437 26.621094 9.5625 9.988281-4.710937 14.269531-16.625 9.5625-26.617187-15.738281-33.386719-54.875-50.804688-92.28125-50.804688-58.195312 0-98.667969 37.84375-98.667969 79 0 54.007812 68.277344 70.515625 83.558594 75.207031 31.65625 9.714844 73.777344 20.546875 73.777344 42.792969 0 21.140625-26.867188 39-58.667969 39-25.300781 0-48.367188-11.457031-56.097656-27.859375-4.710938-9.988281-16.628906-14.273437-26.621094-9.5625-9.988281 4.710937-14.269531 16.625-9.5625 26.617187 15.738281 33.386719 54.875 50.804688 92.28125 50.804688 58.195312 0 98.667969-37.84375 98.667969-79zm0 0"/></svg>